<?xml version="1.0" standalone="no"?>
<!DOCTYPE svg PUBLIC "-//W3C//DTD SVG 20010904//EN"
 "http://www.w3.org/TR/2001/REC-SVG-20010904/DTD/svg10.dtd">
<svg version="1.0" xmlns="http://www.w3.org/2000/svg"
 width="260.000000pt" height="260.000000pt" viewBox="0 0 260.000000 260.000000"
 preserveAspectRatio="xMidYMid meet">
<metadata>
Created by potrace 1.14, written by Peter Selinger 2001-2017
</metadata>
<g transform="translate(0.000000,260.000000) scale(0.100000,-0.100000)"
fill="#000000" stroke="none">
<path d="M1238 2427 c-13 -11 -32 -66 -140 -407 -21 -69 -44 -138 -49 -155 -6
-16 -22 -64 -35 -105 -13 -41 -27 -80 -31 -86 -5 -7 -78 -25 -163 -42 -139
-28 -531 -102 -635 -120 -33 -6 -41 -12 -43 -33 -3 -27 12 -41 143 -131 22
-15 69 -48 105 -73 36 -25 88 -61 115 -80 28 -19 79 -55 115 -80 36 -25 89
-61 117 -80 60 -40 58 -15 16 -225 -13 -69 -31 -147 -38 -175 -8 -27 -24 -102
-36 -165 -11 -63 -27 -137 -35 -164 -20 -70 -18 -95 9 -107 22 -10 31 -6 192
79 17 8 36 23 42 33 7 10 30 27 50 40 21 12 61 36 88 54 28 18 82 52 120 75
39 24 96 61 129 82 32 21 69 41 81 44 16 4 62 -17 161 -72 77 -43 162 -90 189
-104 137 -74 172 -94 190 -111 11 -10 40 -25 63 -33 24 -9 55 -24 70 -34 43
-30 59 -32 83 -13 l22 18 -22 79 c-12 43 -37 137 -56 209 -36 138 -74 283 -99
378 -22 79 -20 90 12 114 15 11 70 58 122 104 52 46 106 93 119 104 14 11 48
41 76 66 29 26 77 65 106 87 64 48 139 126 139 146 0 33 -30 38 -312 51 -418
21 -511 26 -534 30 -15 3 -33 30 -64 97 -24 51 -74 158 -112 238 -79 166 -108
226 -172 362 -47 100 -72 127 -98 105z m57 -58 c24 -47 25 -52 11 -68 -9 -10
-16 -24 -16 -32 0 -13 -22 -86 -60 -194 -10 -27 -35 -106 -56 -175 -22 -69
-57 -179 -79 -245 l-40 -120 -120 -21 c-66 -12 -165 -30 -220 -42 -55 -11
-118 -23 -140 -26 -22 -4 -102 -18 -177 -33 l-137 -27 -48 34 c-53 38 -66 52
-55 61 8 8 93 28 167 40 28 4 73 12 100 18 28 6 75 15 105 20 30 6 93 18 140
27 142 27 172 33 240 44 35 6 70 16 77 23 12 12 54 129 131 372 23 72 58 180
77 240 19 61 35 115 35 121 0 12 21 34 32 34 4 0 19 -23 33 -51z m665 -779
c181 -9 541 -28 548 -30 13 -2 -5 -36 -34 -65 -28 -29 -41 -35 -62 -31 -15 3
-101 8 -192 11 -90 4 -167 8 -170 10 -4 2 -49 5 -101 5 -52 1 -119 4 -149 7
-54 5 -56 7 -82 53 -29 52 -27 63 12 55 14 -2 117 -9 230 -15z m-1129 -696
c30 -15 31 -17 25 -67 -4 -29 -11 -68 -16 -87 -5 -19 -14 -62 -20 -95 -7 -33
-18 -85 -25 -115 -8 -30 -19 -82 -25 -115 -23 -120 -40 -170 -62 -187 -56 -43
-66 -17 -38 109 12 54 26 121 31 148 5 28 15 77 23 110 13 58 33 151 57 263 6
28 13 52 15 52 3 0 19 -7 35 -16z"/>
</g>
</svg>
