<svg xmlns="http://www.w3.org/2000/svg" viewBox="0 0 307.3 299.6"><path d="M93.7 204.5c0-7.3-3.1-12.1-9.9-15.4-15.6-7.5-31-15.4-46.4-23.3-7.4-3.8-14.5-8.1-21.7-12.2 2.7-1.2 5.4-2.6 8.2-3.6 26.3-8.9 52.6-17.6 78.9-26.7 12.8-4.4 11.5-1.1 14.3-17.3 1.9-10.7 3.9-21.4 5.8-32.1 2.8-16.1 5.3-32.2 8.2-48.2.8-4.5.7-10 6.6-11.8 5.9 4.5 9 11.1 12.9 17.1 14.6 22 29.1 44.1 43.6 66.1 1.1 2.1 2.2 4.2 3.2 6.3 3.3 6.9 8.4 8.3 16.1 7.5 28.5-2.8 57.2-4.7 85.8-6.9-.8 1.6-1.3 3.5-2.6 4.7-16.9 15.7-30.4 34.3-46.1 51-.4.4-.8.9-1.2 1.3-7.7 7.7-9 15.8-4.2 26.1 10.5 23 19.9 46.6 29.7 70 .9 2.2 1.9 4.4 2.6 6.7.9 2.9-2.2 6.7-4.9 5.9-8.1-2.4-16.2-4.8-24-7.9-22-8.4-43.9-17.1-65.7-25.9-6.2-2.5-11.2-2.5-16.6 2.3-17 15.3-35.8 28.6-51.9 45.1-5 5.1-10.4 10.1-17.7 12.2 0-3-.1-6 .1-9 1.6-23.4 2.9-46.8 4.9-70.2.6-6.7-2.1-10-8-11.8z"/><path d="M137.7 14c-6 1.8-5.8 7.2-6.6 11.8-2.9 16-5.5 32.1-8.2 48.2-1.8 10.7-3.9 21.4-5.8 32.1-2.8 16.2-1.5 12.9-14.3 17.3-26.2 9.1-52.6 17.8-78.9 26.7-2.8 1-5.5 2.4-8.2 3.6-5-2.1-10.3-3.6-14.4-7.4-1.7-1.6-1.5-5.2.6-6.1 3.9-1.6 7.8-3.2 11.8-4.5 27.5-9.3 54.9-18.9 82.6-27.7 7.5-2.4 10.5-6.2 11.7-13.8 4.4-28.1 9.6-56 14.5-84.1.4-2.4.7-4.8 1.4-7.1.8-3 5.4-3.9 7.4-1.5 2.9 3.6 5.6 7.5 6.4 12.5zm161.5 90.1c-28.6 2.2-57.2 4-85.8 6.9-7.7.8-12.7-.6-16.1-7.5-1-2.1-2.1-4.2-3.2-6.3 34.2-2.9 68.4-5.9 102.6-8.8 2.4-.2 4.8-.1 7.1.1 2.1.2 4.2 3.9 3 5.5-2.3 3.5-5 6.7-7.6 10.1zM93.7 204.5c5.9 1.8 8.6 5.2 8 12-2 23.4-3.4 46.8-4.9 70.2-.2 3-.1 6-.1 9-1.4 1.1-2.5 2.6-4.1 3.4-2.4 1.1-4.6.4-5.8-2.1-.5-1-.7-2.3-.6-3.5 2-29.8 2.6-59.6 7.5-89z" fill="#f3f4f4"/></svg>